<?xml version="1.0" encoding="UTF-8"?>
<svg id="Layer_2" data-name="Layer 2" xmlns="http://www.w3.org/2000/svg" viewBox="0 0 287.86 138.69">
  <defs>
    <style>
      .cls-1 {
        fill: #13293d;
        stroke-width: 0px;
      }
    </style>
  </defs>
  <g id="Layer_14" data-name="Layer 14">
    <g>
      <path class="cls-1" d="M278.02,2c-9.87,7.99-19.49,17.07-30.32,23.73-8.73,5.37-21.67,8.91-29.45-.04-6.23-7.17-9.01-16.89-19.2-19.68-10.65-2.91-21.16,3.99-28.47,11.07-6.72,6.51-14.96,18.93-25.87,16.91-7.92-1.47-12.65-10.46-17.06-16.31-5.74-7.61-12.38-14.2-22.23-15.69-11.19-1.7-22.4,2.86-31.85,8.49-10.69,6.37-21.75,16.18-34.9,16.1-11.76-.07-22-10.12-22.75-21.77-.41-6.39-10.41-6.44-10,0,.69,10.88,6.37,20.52,15.48,26.54,9.86,6.52,21.86,6.32,32.54,1.99,19.14-7.75,44.2-35.36,63.18-12.97,5.77,6.81,9.99,15.12,17.64,20.14,9.19,6.04,20.09,3.75,28.47-2.51,9.21-6.88,16.45-20.37,28.54-22.46,11.21-1.94,14.88,13.7,21.83,19.56,9.85,8.32,23.73,7.09,34.66,1.76,6.59-3.21,12.32-7.95,17.98-12.53,6.29-5.08,12.57-10.18,18.85-15.27,5-4.05-2.11-11.09-7.07-7.07Z"/>
      <path class="cls-1" d="M280.75,62.86c-15.83,12.07-39.43,29.57-59.59,16.21-7.5-4.97-12.37-13.19-20.77-16.94-8.98-4.02-17.77-.81-25.17,4.87-7.5,5.76-13.75,11.95-23.24,14.16-8.62,2.01-18.13.94-26.08-3.01-9.16-4.55-13.47-13.63-21.59-19.31-8.33-5.82-19.09-5.27-28.27-1.92-11.25,4.1-20.52,12.72-32.13,15.83-10.71,2.87-22.74-1.24-29.49-10.13-3.83-5.04-12.45-.07-8.57,5.05,6.06,7.98,14.43,13.62,24.35,15.38,10.85,1.93,20.81-1.41,30.24-6.67,9.49-5.28,19.95-13.47,31.51-11.9,5.69.78,9.36,4.59,12.92,8.76,3.46,4.05,6.93,7.78,11.34,10.8,15.27,10.42,37.2,10.94,52.68.68,7.21-4.78,15.52-16.34,25.23-14.25,9.13,1.97,14.98,12.91,22.7,17.67,23.73,14.64,50.01-2.19,68.96-16.64,5.03-3.83.09-12.52-5.01-8.63Z"/>
      <path class="cls-1" d="M280.01,120.23c-11.18,16.64-32.08,14.06-47.51,6.54-10.26-5-19.6-12.33-30.59-15.49-10.43-3-19.27.31-28.1,6.3-7.67,5.2-14.79,11.45-23.27,15.1-8.83,3.8-17.67,3.04-26.11-1.58-9.7-5.31-17.23-12.45-28.83-10.6-10.45,1.67-20.05,7.67-29.69,12.02-11.13,5.02-22.41,7.58-34.43,5.38-11.47-2.1-22.12-8.33-30.17-17.4-4.12-4.64,2.39-11.72,6.52-7.07,7.01,7.9,16.1,13.11,26.11,14.83,10.11,1.74,19.68-.95,28.97-5.14,18.13-8.17,35.91-19.03,55.1-7.65,8.02,4.76,15.43,11.58,25.16,9.27,8.08-1.92,15-7.92,21.74-12.8,7.25-5.25,14.93-10.24,23.71-11.54,9.91-1.48,19.41,1.93,28.28,6.47,9.86,5.04,18.96,11.91,29.7,14.63,8.61,2.18,19.7,2.25,25.45-6.31,3.46-5.15,11.46-.17,7.96,5.05Z"/>
    </g>
  </g>
</svg>