<?xml version="1.0" encoding="UTF-8"?>
<svg id="Layer_2" data-name="Layer 2" xmlns="http://www.w3.org/2000/svg" viewBox="0 0 156.42 184.72">
  <defs>
    <style>
      .cls-1 {
        fill: none;
        stroke: #13293d;
        stroke-miterlimit: 10;
        stroke-width: 9px;
      }
    </style>
  </defs>
  <g id="Layer_20" data-name="Layer 20">
    <path class="cls-1" d="M117.8,176.68c-5.93,2.34-12.93,5.15-18.87,2.42-1.53-.7-2.87-1.73-4.24-2.7-7.82-5.53-53.26-43.15-58.65-48.03-3.62-3.28-7.28-6.51-10.68-10.02-2.97-3.05-6.85-6.53-8.86-10.29-3.68-6.9-6.62-15.06-3.95-22.41-1.54-1.44-3.09-3.14-4.63-4.58-1.02-.96-2.07-1.94-2.72-3.18-.33-.63-.55-1.31-.67-2-.28-1.64,1.45-2.9,2.93-2.15,1.01.51,2.05.97,3.02,1.45,1.27.63,2.59,1.19,3.97,1.49.86.19,1.75.28,2.57.62.98.41,1.81,1.18,2.29,2.14,7.89-2.14,16.97,1.05,23.15,6.41,5.72,4.96,8.91,12.23,14.09,17.75,2.3,2.45,4.97,4.53,7.63,6.59,3.11,2.42,6.22,4.83,9.33,7.25,2.32-4.38.59-9.46-1.28-14.05-3.74-9.15-8.92-17.68-12.25-26.98-1.25-3.48-2.24-7.08-4.01-10.32-.93-1.7-2.06-3.28-3.15-4.88-5.06-7.38-9.63-15.96-8.43-24.83.74-5.41,3.71-10.49,8.08-13.77,1.61-1.21,1.57-3.88,1.08-5.84-.48-1.96-1.26-3.97-.81-5.94.25-1.13.89-2.14,1.62-3.05.9-1.12,1.94-2.13,3.09-2.99s2.54.36,1.98,1.61c-.53,1.19-.89,2.44-.93,3.8-.02.66.06,1.32.24,1.95,1.08,3.76,4.35,4.15,7.28,4.65,4.97.85,9.9,2.43,14.07,5.26,4.05,2.75,8.13,9.02,9.23,13.8,2.51,10.88,8.64,20.83,9.8,31.94.2,1.9.34,3.83.82,5.68.54,2.06,1.5,3.98,2.29,5.95,3.58,8.94,3.87,19.18,8.97,27.34,7.74-13.41,6.33-30.77,11.46-45.38.53-1.5,1.15-3.01,2.2-4.2.7-.79,1.57-1.41,2.44-2.02,1.98-1.41,3.96-2.82,5.95-4.23.45-2.02.22-4.33.47-6.38s.9-4.19,2.48-5.53c.18-.15.36-.3.53-.43,1.19-.9,2.88.33,2.31,1.71-.9,2.17.2,5.43,1.33,7.74,1.45,2.94,4.02,5.14,6.02,7.74,4.29,5.55,5.89,12.85,5.49,19.85-.41,7-2.68,13.77-5.5,20.2-2.69,6.14-7.59,45.01-9.14,51.65-.96,4.12-2.71,7.45-3.72,11.43-2.05,8.1-7.92,14.69-15.7,17.76Z"/>
  </g>
</svg>