<?xml version="1.0" encoding="UTF-8"?>
<svg id="Layer_2" data-name="Layer 2" xmlns="http://www.w3.org/2000/svg" viewBox="0 0 155.49 196.38">
  <defs>
    <style>
      .cls-1 {
        fill: #13293d;
        stroke-width: 0px;
      }
    </style>
  </defs>
  <g id="Layer_20" data-name="Layer 20">
    <g id="dinoegg">
      <path class="cls-1" d="M134.75,166.9c24.23-28.59,22.81-71.03,17.61-105.95-3.03-20.38-11.11-41.19-28.67-53.3C90.39-15.32,53.54,18.45,33.91,43.36,20.84,59.93,3.98,78.91.73,100.49c-4.52,30.04,12.52,68.32,38.24,84.02,14.9,9.1,30.74,14.74,48.21,10.35,17.66-4.44,35.71-13.95,47.58-27.97ZM92.06,182.91c-7.14,2.54-14.68,4.37-22.3,3.47-7.34-.87-14.27-4-20.67-7.54-14.17-7.86-22.67-17.84-29.43-32.67-6.22-13.64-10.3-29.23-7.94-44.27,2.98-18.94,16.1-34.35,27.41-49.09C56.52,30.15,89.49-5.86,119.98,17.24c13.27,10.06,19.33,26.68,22.09,42.52,2.8,16.08,3.74,33.06,2.87,49.36-.85,15.91-4.47,31.95-13.33,45.41-9.18,13.94-24.08,22.9-39.54,28.39Z"/>
      <ellipse class="cls-1" cx="81.22" cy="69.54" rx="10.66" ry="8.6" transform="translate(-25.55 75.33) rotate(-43.67)"/>
      <circle class="cls-1" cx="132.92" cy="64.17" r="8.08"/>
      <circle class="cls-1" cx="108.83" cy="32.96" r="7.39"/>
      <circle class="cls-1" cx="132.64" cy="97.49" r="7.22"/>
      <ellipse class="cls-1" cx="37.61" cy="112.01" rx="8.25" ry="8" transform="translate(-66.95 56.96) rotate(-43.67)"/>
      <circle class="cls-1" cx="25.02" cy="80.73" r="6.64"/>
      <circle class="cls-1" cx="38.97" cy="60.2" r="5.23"/>
      <circle class="cls-1" cx="47.04" cy="153.83" r="5.55"/>
      <ellipse class="cls-1" cx="20.66" cy="136.71" rx="7.25" ry="6.16" transform="translate(-88.68 52.09) rotate(-43.67)"/>
      <circle class="cls-1" cx="68.53" cy="176.35" r="5.55"/>
      <circle class="cls-1" cx="105.68" cy="168.85" r="5.83"/>
      <circle class="cls-1" cx="127.57" cy="147.95" r="5.83"/>
      <circle class="cls-1" cx="99.15" cy="110.96" r="4.98"/>
      <circle class="cls-1" cx="105.68" cy="74.24" r="3.44"/>
      <circle class="cls-1" cx="76.31" cy="99.31" r="5.23"/>
      <circle class="cls-1" cx="72.58" cy="145.97" r="6.41"/>
      <circle class="cls-1" cx="122.21" cy="127.42" r="4.47"/>
    </g>
  </g>
</svg>