<?xml version="1.0" encoding="UTF-8"?>
<svg id="Layer_2" data-name="Layer 2" xmlns="http://www.w3.org/2000/svg" viewBox="0 0 110.49 218.67">
  <defs>
    <style>
      .cls-1 {
        fill: #13293d;
        stroke-width: 0px;
      }
    </style>
  </defs>
  <g id="Layer_20" data-name="Layer 20">
    <path class="cls-1" d="M99.48,116.03c12.22-35.6,15.6-75.23,3.25-110.78-.24-.69-.52-1.4-.86-2.08-.8-1.57-1.93-2.92-3.61-3.14-1.41-.18-2.78.53-4.01,1.25-18.26,10.58-34.25,25.63-47.52,41.94-13.15,16.15-23.83,34.29-31.65,53.59-7.82,19.28-12.78,39.74-14.45,60.49-.55,6.85-.74,13.72-.57,20.59.12,4.57.4,9.14.45,13.72.05,3.69-.99,8.63.48,12.12,1.52,3.62,4.93,2.72,7.9,1.86,3.58-1.04,7.42-1.02,11.03-.1.65.38,1.37.61,2.12.66,3.68,1.33,7.01,3.6,9.44,6.67,2.06,2.59,4.18,6.03,7.48,5.86,2.49-.13,4.29-2.34,5.75-4.36,21.99-30.55,42.53-62.68,54.75-98.28ZM11.32,194.21c-6.96-55.92,13.01-113.43,51.35-154.49,6.79-7.27,15.8-17.7,24.97-21.74-.2,7.98-5.74,17.9-8.65,25.39-3.38,8.71-6.94,17.36-10.44,26.03-11.01,27.25-20.16,55.01-30.75,82.39-3,7.76-6,15.52-9.01,23.28-1.38,3.56-2.75,7.12-4.13,10.68-1.06,2.75-1.98,6.82-3.81,9.56-3.49-1.06-6.85-1.57-9.52-1.11ZM38.46,205.2c-1.99-1.97-4.98-4.07-8.35-5.92,2.64-4.7,4.08-10.46,5.88-15.11,2.98-7.71,5.97-15.43,8.95-23.14,8.76-22.65,16.94-46.31,25.57-69.32,4.22-11.25,8.87-22.33,13.38-33.47,2.25-5.56,4.48-11.14,6.59-16.76,1.91-5.09,3.75-15.5,6.84-19.58,13.66,60.05-15.44,126.61-51.07,173.44-2.54,3.33-5.13,6.62-7.79,9.86Z"/>
  </g>
</svg>