<?xml version="1.0" encoding="UTF-8"?>
<svg id="Layer_2" data-name="Layer 2" xmlns="http://www.w3.org/2000/svg" viewBox="0 0 209.39 226.17">
  <defs>
    <style>
      .cls-1 {
        fill: #13293d;
        stroke-width: 0px;
      }
    </style>
  </defs>
  <g id="Layer_19" data-name="Layer 19">
    <g>
      <path class="cls-1" d="M151.3,73.28c-2.77-5.81-11.39-.74-8.63,5.05,16.74,35.13-26.55,85.13-62.72,62.88-17.1-10.52-21.49-34.99-9.55-51.1,11.1-14.98,37.47-18.78,46.22.89,3.97,8.93-.13,20.94-9.34,24.87-4.49,1.91-10.72,1.51-14.16-2.27-2.62-2.88-2.77-9.18,1.43-10.87,5.9-2.37,3.32-12.05-2.66-9.64-11.6,4.67-14.24,20.08-4.87,28.51,9.61,8.64,24.74,6.13,33.09-2.9,8.52-9.21,10.48-22.87,4.52-33.95-6.11-11.37-19.43-18.36-32.22-17.41-28.76,2.12-45.48,33.68-36.09,59.72,9.79,27.16,42.75,37.24,67.08,23.04,25.68-14.98,41.28-48.71,27.9-76.8Z"/>
      <path class="cls-1" d="M117.58,219.92c-2.94-14.1-3.92-28.38-3.11-42.75.36-6.43-9.64-6.41-10,0-.86,15.26.35,30.46,3.47,45.41,1.31,6.3,10.95,3.63,9.64-2.66Z"/>
      <path class="cls-1" d="M64.6,172.29c-3.44,10.28-9.95,19.2-18.78,25.51-5.19,3.71-.2,12.39,5.05,8.63,11.06-7.9,19.06-18.59,23.38-31.49,2.05-6.12-7.61-8.74-9.64-2.66Z"/>
      <path class="cls-1" d="M41.91,139.05c-11.9,4.73-24.27,7.37-37.08,7.72-6.42.17-6.45,10.18,0,10,13.66-.37,27.04-3.03,39.74-8.08,5.91-2.35,3.33-12.03-2.66-9.64Z"/>
      <path class="cls-1" d="M43.14,94.27c-11.68-3.44-23.37-6.88-35.05-10.33-6.19-1.82-8.83,7.83-2.66,9.64,11.68,3.44,23.37,6.88,35.05,10.33,6.19,1.82,8.83-7.83,2.66-9.64Z"/>
      <path class="cls-1" d="M57.62,61.94L28.44,25.11c-3.99-5.04-11.03,2.08-7.07,7.07,9.73,12.27,19.45,24.55,29.18,36.82,3.99,5.04,11.03-2.08,7.07-7.07Z"/>
      <path class="cls-1" d="M93.57,40.22c-3.38-11.63-4.27-23.45-2.79-35.46.78-6.37-9.23-6.32-10,0-1.57,12.83-.46,25.71,3.15,38.12,1.79,6.17,11.45,3.54,9.64-2.66Z"/>
      <path class="cls-1" d="M149.41,15c-4.59,10.7-10.95,20.24-19.18,28.49-4.55,4.56,2.52,11.63,7.07,7.07,8.79-8.81,15.83-19.07,20.75-30.51,2.51-5.85-6.1-10.95-8.63-5.05Z"/>
      <path class="cls-1" d="M204.56,61.12c-11.66.2-23.21,1.82-34.47,4.87-6.21,1.68-3.57,11.33,2.66,9.64,10.43-2.82,21-4.33,31.81-4.51,6.43-.11,6.45-10.11,0-10Z"/>
      <path class="cls-1" d="M205.71,125.73c-10.94-2.17-21.88-4.33-32.82-6.5-6.29-1.24-8.98,8.39-2.66,9.64,10.94,2.17,21.88,4.33,32.82,6.5,6.29,1.24,8.98-8.39,2.66-9.64Z"/>
      <path class="cls-1" d="M174.8,187.37c-5.35-12.79-12.82-24.23-22.63-34.05-4.55-4.56-11.63,2.51-7.07,7.07,8.52,8.52,15.4,18.5,20.06,29.64,2.45,5.85,12.13,3.28,9.64-2.66Z"/>
    </g>
  </g>
</svg>