<?xml version="1.0" encoding="UTF-8"?>
<svg id="Layer_2" data-name="Layer 2" xmlns="http://www.w3.org/2000/svg" viewBox="0 0 205.05 205.05">
  <defs>
    <style>
      .cls-1 {
        fill: none;
        stroke: #13293d;
        stroke-miterlimit: 10;
        stroke-width: 3px;
      }

      .cls-2 {
        fill: #eda9b2;
        stroke-width: 0px;
      }

      .cls-3 {
        fill: #13293d;
        font-family: StylishCalifornia, 'Stylish California';
        font-size: 16.2px;
      }
    </style>
  </defs>
  <g id="Layer_20" data-name="Layer 20">
    <g>
      <g>
        <path class="cls-2" d="M47.1,93c.99-.46,2.14-.94,3.15-1.26,3.22-1.07,7.01-.4,10.14-.25,4.02.14,8.25-1.52,11.38-3.86,1.55-1.19,2.69-2.77,4.23-4.59,1.53-1.87,3.64-3.61,5.83-4.7,3.32-1.68,7.1-2.78,10.89-2.55,3.28.2,6.23,1.32,9.43.79,2.79-.42,5.79-1.5,8.12-3.16,1.69-1.26,2.96-2.85,4.53-4.43,4.36-4.26,10.81-6.38,16.78-5.47,4.57,1.07,8.43,2.18,13.05.92-.98.46-2.14.94-3.15,1.26-3.22,1.07-7.01.41-10.14.26-4.02-.14-8.25,1.51-11.38,3.85-1.55,1.19-2.69,2.77-4.22,4.59-3.17,3.91-7.93,6.2-12.87,7.06-3.47.68-7.13-.36-10.47-.71-2.91-.19-5.78.61-8.46,1.82-2.89,1.22-4.8,3.58-7.01,5.87-4.35,4.26-10.8,6.39-16.77,5.48-4.57-1.07-8.44-2.18-13.05-.92h0Z"/>
        <path class="cls-2" d="M57.22,117.79c.99-.46,2.14-.94,3.15-1.26,3.22-1.07,7.01-.4,10.14-.25,4.02.14,8.25-1.52,11.38-3.86,1.55-1.19,2.69-2.77,4.23-4.59,1.53-1.87,3.64-3.61,5.83-4.7,3.32-1.68,7.1-2.78,10.89-2.55,3.28.2,6.23,1.32,9.43.79,2.79-.42,5.79-1.5,8.12-3.16,1.69-1.26,2.96-2.85,4.53-4.43,4.36-4.26,10.81-6.38,16.78-5.47,4.57,1.07,8.43,2.18,13.05.92-.98.46-2.14.94-3.15,1.26-3.22,1.07-7.01.41-10.14.26-4.02-.14-8.25,1.51-11.38,3.85-1.55,1.19-2.69,2.77-4.22,4.59-3.17,3.91-7.93,6.2-12.87,7.06-3.47.68-7.13-.36-10.47-.71-2.91-.19-5.78.61-8.46,1.82-2.89,1.22-4.8,3.58-7.01,5.87-4.35,4.26-10.8,6.39-16.77,5.48-4.57-1.07-8.44-2.18-13.05-.92h0Z"/>
        <path class="cls-2" d="M66.69,142.03c.99-.46,2.14-.94,3.15-1.26,3.22-1.07,7.01-.4,10.14-.25,4.02.14,8.25-1.52,11.38-3.86,3.27-2.75,5.7-7.4,10.06-9.3,3.32-1.68,7.1-2.78,10.89-2.55,3.28.2,6.23,1.32,9.43.79,2.79-.42,5.79-1.5,8.12-3.16,1.69-1.26,2.96-2.85,4.53-4.43,4.36-4.26,10.81-6.38,16.78-5.47,4.57,1.07,8.43,2.18,13.05.92-.98.46-2.14.94-3.15,1.26-3.22,1.07-7.01.41-10.14.26-4.02-.14-8.25,1.51-11.38,3.85-1.55,1.19-2.69,2.77-4.22,4.59-3.17,3.91-7.93,6.2-12.87,7.06-3.47.68-7.13-.36-10.47-.71-2.91-.19-5.78.61-8.46,1.82-2.89,1.22-4.8,3.58-7.01,5.87-4.35,4.26-10.8,6.39-16.77,5.48-4.57-1.07-8.44-2.18-13.05-.92h0Z"/>
      </g>
      <path class="cls-2" d="M102.53,8.45C50.57,8.45,8.46,50.57,8.46,102.52s42.11,94.07,94.07,94.07,94.07-42.11,94.07-94.07S154.48,8.45,102.53,8.45ZM102.53,170.31c-37.44,0-67.79-30.35-67.79-67.79s30.35-67.79,67.79-67.79,67.79,30.35,67.79,67.79-30.35,67.79-67.79,67.79Z"/>
      <text class="cls-3" transform="translate(65.24 33.94) rotate(-24.9) scale(.96 1)"><tspan x="0" y="0">m</tspan></text>
      <text class="cls-3" transform="translate(78.42 28.09) rotate(-16.39) scale(.96 1)"><tspan x="0" y="0">e</tspan></text>
      <text class="cls-3" transform="translate(85.91 25.91) rotate(-10.21) scale(.96 1)"><tspan x="0" y="0">e</tspan></text>
      <text class="cls-3" transform="translate(93.07 24.66) rotate(-5.26) scale(.96 1)"><tspan x="0" y="0">t</tspan></text>
      <text class="cls-3" transform="translate(98.38 24.18) rotate(-1.73) scale(.96 1)"><tspan x="0" y="0"> </tspan></text>
      <text class="cls-3" transform="translate(101.93 23.73) rotate(5.26) scale(.96 1)"><tspan x="0" y="0">m</tspan></text>
      <text class="cls-3" transform="translate(116.26 25.3) rotate(13.82) scale(.96 1)"><tspan x="0" y="0">e</tspan></text>
      <text class="cls-3" transform="translate(123.34 27.1) rotate(18.15) scale(.96 1)"><tspan x="0" y="0"> </tspan></text>
      <text class="cls-3" transform="translate(126.8 27.84) rotate(25.35) scale(.96 1)"><tspan x="0" y="0">w</tspan></text>
      <text class="cls-3" transform="translate(140.08 34.34) rotate(34.61) scale(.96 1)"><tspan x="0" y="0">h</tspan></text>
      <text class="cls-3" transform="translate(147.9 39.81) rotate(40.98) scale(.96 1)"><tspan x="0" y="0">e</tspan></text>
      <text class="cls-3" transform="translate(153.68 44.83) rotate(46.7) scale(.96 1)"><tspan x="0" y="0">r</tspan></text>
      <text class="cls-3" transform="translate(158.69 50.13) rotate(52.03) scale(.96 1)"><tspan x="0" y="0">e</tspan></text>
      <text class="cls-3" transform="translate(163.14 55.93) rotate(56.04) scale(.96 1)"><tspan x="0" y="0"> </tspan></text>
      <text class="cls-3" transform="translate(165.23 58.98) rotate(59.32) scale(.96 1)"><tspan x="0" y="0">t</tspan></text>
      <text class="cls-3" transform="translate(168.09 63.6) rotate(64.75) scale(.96 1)"><tspan x="0" y="0">h</tspan></text>
      <text class="cls-3" transform="translate(172.12 72.27) rotate(70.82) scale(.96 1)"><tspan x="0" y="0">e</tspan></text>
      <text class="cls-3" transform="translate(174.47 79.19) rotate(74.75) scale(.96 1)"><tspan x="0" y="0"> </tspan></text>
      <text class="cls-3" transform="translate(175.48 82.73) rotate(78.24) scale(.96 1)"><tspan x="0" y="0">s</tspan></text>
      <text class="cls-3" transform="translate(176.86 88.95) rotate(83.97) scale(.96 1)"><tspan x="0" y="0">u</tspan></text>
      <text class="cls-3" transform="translate(177.9 98.91) rotate(90.89) scale(.96 1)"><tspan x="0" y="0">n</tspan></text>
      <text class="cls-3" transform="translate(177.7 108.05) rotate(95.74) scale(.96 1)"><tspan x="0" y="0">t</tspan></text>
      <text class="cls-3" transform="translate(177.19 113.47) rotate(100.27) scale(.96 1)"><tspan x="0" y="0">o</tspan></text>
      <text class="cls-3" transform="translate(175.9 120.94) rotate(106.5) scale(.96 1)"><tspan x="0" y="0">u</tspan></text>
      <text class="cls-3" transform="translate(173.06 130.3) rotate(112.57) scale(.96 1)"><tspan x="0" y="0">c</tspan></text>
      <text class="cls-3" transform="translate(170.31 137.08) rotate(118.71) scale(.96 1)"><tspan x="0" y="0">h</tspan></text>
      <text class="cls-3" transform="translate(165.67 145.45) rotate(124.86) scale(.96 1)"><tspan x="0" y="0">e</tspan></text>
      <text class="cls-3" transform="translate(161.1 151.93) rotate(130.22) scale(.96 1)"><tspan x="0" y="0">s</tspan></text>
      <text class="cls-3" transform="translate(157.11 156.6) rotate(133.84) scale(.96 1)"><tspan x="0" y="0"> </tspan></text>
      <text class="cls-3" transform="translate(154.57 159.28) rotate(137.19) scale(.96 1)"><tspan x="0" y="0">t</tspan></text>
      <text class="cls-3" transform="translate(150.67 163.04) rotate(142.82) scale(.96 1)"><tspan x="0" y="0">h</tspan></text>
      <text class="cls-3" transform="translate(143.04 168.77) rotate(149.26) scale(.96 1)"><tspan x="0" y="0">e</tspan></text>
      <text class="cls-3" transform="translate(136.75 172.44) rotate(153.48) scale(.96 1)"><tspan x="0" y="0"> </tspan></text>
      <text class="cls-3" transform="translate(133.48 174.12) rotate(157.31) scale(.96 1)"><tspan x="0" y="0">s</tspan></text>
      <text class="cls-3" transform="translate(127.34 176.7) rotate(163.02) scale(.96 1)"><tspan x="0" y="0">e</tspan></text>
      <text class="cls-3" transform="translate(119.79 178.99) rotate(169.37) scale(.96 1)"><tspan x="0" y="0">a</tspan></text>
      <text class="cls-3" transform="translate(112.35 180.32) rotate(173.8) scale(.96 1)"><tspan x="0" y="0"> </tspan></text>
      <text class="cls-3" transform="translate(108.87 181.08) rotate(-179.03) scale(.96 1)"><tspan x="0" y="0">m</tspan></text>
      <text class="cls-3" transform="translate(94.44 180.61) rotate(-170.7) scale(.96 1)"><tspan x="0" y="0">e</tspan></text>
      <text class="cls-3" transform="translate(86.73 179.33) rotate(-164.51) scale(.96 1)"><tspan x="0" y="0">e</tspan></text>
      <text class="cls-3" transform="translate(79.75 177.36) rotate(-159.58) scale(.96 1)"><tspan x="0" y="0">t</tspan></text>
      <text class="cls-3" transform="translate(74.35 175.68) rotate(-151.61) scale(.96 1)"><tspan x="0" y="0">m</tspan></text>
      <text class="cls-3" transform="translate(61.76 168.59) rotate(-143.3) scale(.96 1)"><tspan x="0" y="0">e</tspan></text>
      <text class="cls-3" transform="translate(55.95 164.2) rotate(-139.19) scale(.96 1)"><tspan x="0" y="0"> </tspan></text>
      <text class="cls-3" transform="translate(53.02 162.14) rotate(-132.34) scale(.96 1)"><tspan x="0" y="0">w</tspan></text>
      <text class="cls-3" transform="translate(43.19 151.08) rotate(-123.54) scale(.96 1)"><tspan x="0" y="0">h</tspan></text>
      <text class="cls-3" transform="translate(37.95 143.09) rotate(-117.42) scale(.96 1)"><tspan x="0" y="0">e</tspan></text>
      <text class="cls-3" transform="translate(34.43 136.29) rotate(-111.89) scale(.96 1)"><tspan x="0" y="0">r</tspan></text>
      <text class="cls-3" transform="translate(31.7 129.5) rotate(-106.67) scale(.96 1)"><tspan x="0" y="0">e</tspan></text>
      <text class="cls-3" transform="translate(29.65 122.48) rotate(-102.76) scale(.96 1)"><tspan x="0" y="0"> </tspan></text>
      <text class="cls-3" transform="translate(28.81 118.88) rotate(-99.56) scale(.96 1)"><tspan x="0" y="0">t</tspan></text>
      <text class="cls-3" transform="translate(27.81 113.52) rotate(-94.27) scale(.96 1)"><tspan x="0" y="0">h</tspan></text>
      <text class="cls-3" transform="translate(27.15 104) rotate(-88.43) scale(.96 1)"><tspan x="0" y="0">e</tspan></text>
      <text class="cls-3" transform="translate(27.4 96.67) rotate(-84.61) scale(.96 1)"><tspan x="0" y="0"> </tspan></text>
      <text class="cls-3" transform="translate(27.71 93) rotate(-81.16) scale(.96 1)"><tspan x="0" y="0">s</tspan></text>
      <text class="cls-3" transform="translate(28.6 86.71) rotate(-75.39) scale(.96 1)"><tspan x="0" y="0">u</tspan></text>
      <text class="cls-3" transform="translate(31.13 77.03) rotate(-68.3) scale(.96 1)"><tspan x="0" y="0">n</tspan></text>
      <text class="cls-3" transform="translate(34.73 68.28) rotate(-63.6) scale(.96 1)"><tspan x="0" y="0"> </tspan></text>
      <text class="cls-3" transform="translate(36.35 64.96) rotate(-60.33) scale(.96 1)"><tspan x="0" y="0">t</tspan></text>
      <text class="cls-3" transform="translate(39.01 60.2) rotate(-55.65) scale(.96 1)"><tspan x="0" y="0">o</tspan></text>
      <text class="cls-3" transform="translate(43.22 53.92) rotate(-49.27) scale(.96 1)"><tspan x="0" y="0">u</tspan></text>
      <text class="cls-3" transform="translate(49.65 46.55) rotate(-43) scale(.96 1)"><tspan x="0" y="0">c</tspan></text>
      <text class="cls-3" transform="translate(54.95 41.52) rotate(-36.61) scale(.96 1)"><tspan x="0" y="0">h</tspan></text>
      <circle class="cls-1" cx="102.53" cy="102.53" r="101.03"/>
    </g>
  </g>
</svg>