<?xml version="1.0" encoding="UTF-8"?>
<svg id="Layer_2" data-name="Layer 2" xmlns="http://www.w3.org/2000/svg" viewBox="0 0 227.07 227.08">
  <defs>
    <style>
      .cls-1 {
        fill: #eda9b2;
        stroke-width: 0px;
      }

      .cls-2 {
        fill: #2c308e;
        font-family: StylishCalifornia, 'Stylish California';
        font-size: 19.55px;
      }
    </style>
  </defs>
  <g id="Layer_19" data-name="Layer 19">
    <path class="cls-1" d="M113.53,0C50.83,0,0,50.83,0,113.54s50.83,113.54,113.53,113.54,113.54-50.83,113.54-113.54S176.24,0,113.53,0ZM113.53,195.36c-45.18,0-81.82-36.63-81.82-81.82S68.35,31.72,113.53,31.72s81.83,36.63,81.83,81.82-36.64,81.82-81.83,81.82Z"/>
    <text class="cls-2" transform="translate(68.53 30.76) rotate(-24.9) scale(.96 1)"><tspan x="0" y="0">m</tspan></text>
    <text class="cls-2" transform="translate(84.44 23.7) rotate(-16.38) scale(.96 1)"><tspan x="0" y="0">e</tspan></text>
    <text class="cls-2" transform="translate(93.48 21.07) rotate(-10.21) scale(.96 1)"><tspan x="0" y="0">e</tspan></text>
    <text class="cls-2" transform="translate(102.11 19.55) rotate(-5.26) scale(.96 1)"><tspan x="0" y="0">t</tspan></text>
    <text class="cls-2" transform="translate(108.53 18.98) rotate(-1.72) scale(.96 1)"><tspan x="0" y="0"> </tspan></text>
    <text class="cls-2" transform="translate(112.78 18.43) rotate(5.24) scale(.96 1)"><tspan x="0" y="0">m</tspan></text>
    <text class="cls-2" transform="translate(130.11 20.33) rotate(13.82) scale(.96 1)"><tspan x="0" y="0">e</tspan></text>
    <text class="cls-2" transform="translate(138.62 22.49) rotate(18.13) scale(.96 1)"><tspan x="0" y="0"> </tspan></text>
    <text class="cls-2" transform="translate(142.83 23.39) rotate(25.35) scale(.96 1)"><tspan x="0" y="0">w</tspan></text>
    <text class="cls-2" transform="translate(158.85 31.24) rotate(34.61) scale(.96 1)"><tspan x="0" y="0">h</tspan></text>
    <text class="cls-2" transform="translate(168.27 37.82) rotate(40.96) scale(.96 1)"><tspan x="0" y="0">e</tspan></text>
    <text class="cls-2" transform="translate(175.25 43.89) rotate(46.67) scale(.96 1)"><tspan x="0" y="0">r</tspan></text>
    <text class="cls-2" transform="translate(181.32 50.3) rotate(52.03) scale(.96 1)"><tspan x="0" y="0">e</tspan></text>
    <text class="cls-2" transform="translate(186.67 57.27) rotate(56.01) scale(.96 1)"><tspan x="0" y="0"> </tspan></text>
    <text class="cls-2" transform="translate(189.2 60.96) rotate(59.3) scale(.96 1)"><tspan x="0" y="0">t</tspan></text>
    <text class="cls-2" transform="translate(192.65 66.53) rotate(64.73) scale(.96 1)"><tspan x="0" y="0">h</tspan></text>
    <text class="cls-2" transform="translate(197.52 76.99) rotate(70.8) scale(.96 1)"><tspan x="0" y="0">e</tspan></text>
    <text class="cls-2" transform="translate(200.36 85.34) rotate(74.72) scale(.96 1)"><tspan x="0" y="0"> </tspan></text>
    <text class="cls-2" transform="translate(201.58 89.61) rotate(78.21) scale(.96 1)"><tspan x="0" y="0">s</tspan></text>
    <text class="cls-2" transform="translate(203.25 97.12) rotate(83.95) scale(.96 1)"><tspan x="0" y="0">u</tspan></text>
    <text class="cls-2" transform="translate(204.51 109.12) rotate(90.89) scale(.96 1)"><tspan x="0" y="0">n</tspan></text>
    <text class="cls-2" transform="translate(204.26 120.17) rotate(95.72) scale(.96 1)"><tspan x="0" y="0">t</tspan></text>
    <text class="cls-2" transform="translate(203.66 126.71) rotate(100.25) scale(.96 1)"><tspan x="0" y="0">o</tspan></text>
    <text class="cls-2" transform="translate(202.1 135.73) rotate(106.48) scale(.96 1)"><tspan x="0" y="0">u</tspan></text>
    <text class="cls-2" transform="translate(198.68 147.03) rotate(112.55) scale(.96 1)"><tspan x="0" y="0">c</tspan></text>
    <text class="cls-2" transform="translate(195.37 155.22) rotate(118.69) scale(.96 1)"><tspan x="0" y="0">h</tspan></text>
    <text class="cls-2" transform="translate(189.79 165.29) rotate(124.81) scale(.96 1)"><tspan x="0" y="0">e</tspan></text>
    <text class="cls-2" transform="translate(184.27 173.11) rotate(130.18) scale(.96 1)"><tspan x="0" y="0">s</tspan></text>
    <text class="cls-2" transform="translate(179.46 178.75) rotate(133.79) scale(.96 1)"><tspan x="0" y="0"> </tspan></text>
    <text class="cls-2" transform="translate(176.4 181.99) rotate(137.15) scale(.96 1)"><tspan x="0" y="0">t</tspan></text>
    <text class="cls-2" transform="translate(171.7 186.53) rotate(142.78) scale(.96 1)"><tspan x="0" y="0">h</tspan></text>
    <text class="cls-2" transform="translate(162.49 193.45) rotate(149.22) scale(.96 1)"><tspan x="0" y="0">e</tspan></text>
    <text class="cls-2" transform="translate(154.9 197.89) rotate(153.44) scale(.96 1)"><tspan x="0" y="0"> </tspan></text>
    <text class="cls-2" transform="translate(150.96 199.92) rotate(157.26) scale(.96 1)"><tspan x="0" y="0">s</tspan></text>
    <text class="cls-2" transform="translate(143.55 203.04) rotate(162.97) scale(.96 1)"><tspan x="0" y="0">e</tspan></text>
    <text class="cls-2" transform="translate(134.44 205.82) rotate(169.32) scale(.96 1)"><tspan x="0" y="0">a</tspan></text>
    <text class="cls-2" transform="translate(125.46 207.43) rotate(173.75) scale(.96 1)"><tspan x="0" y="0"> </tspan></text>
    <text class="cls-2" transform="translate(121.26 208.35) rotate(-179.03) scale(.96 1)"><tspan x="0" y="0">m</tspan></text>
    <text class="cls-2" transform="translate(103.84 207.79) rotate(-170.75) scale(.96 1)"><tspan x="0" y="0">e</tspan></text>
    <text class="cls-2" transform="translate(94.57 206.26) rotate(-164.58) scale(.96 1)"><tspan x="0" y="0">e</tspan></text>
    <text class="cls-2" transform="translate(86.12 203.89) rotate(-159.63) scale(.96 1)"><tspan x="0" y="0">t</tspan></text>
    <text class="cls-2" transform="translate(79.59 201.86) rotate(-151.66) scale(.96 1)"><tspan x="0" y="0">m</tspan></text>
    <text class="cls-2" transform="translate(64.41 193.34) rotate(-143.37) scale(.96 1)"><tspan x="0" y="0">e</tspan></text>
    <text class="cls-2" transform="translate(57.38 188.02) rotate(-139.23) scale(.96 1)"><tspan x="0" y="0"> </tspan></text>
    <text class="cls-2" transform="translate(53.86 185.55) rotate(-132.41) scale(.96 1)"><tspan x="0" y="0">w</tspan></text>
    <text class="cls-2" transform="translate(41.98 172.22) rotate(-123.61) scale(.96 1)"><tspan x="0" y="0">h</tspan></text>
    <text class="cls-2" transform="translate(35.65 162.58) rotate(-117.48) scale(.96 1)"><tspan x="0" y="0">e</tspan></text>
    <text class="cls-2" transform="translate(31.39 154.39) rotate(-111.95) scale(.96 1)"><tspan x="0" y="0">r</tspan></text>
    <text class="cls-2" transform="translate(28.08 146.2) rotate(-106.74) scale(.96 1)"><tspan x="0" y="0">e</tspan></text>
    <text class="cls-2" transform="translate(25.6 137.72) rotate(-102.82) scale(.96 1)"><tspan x="0" y="0"> </tspan></text>
    <text class="cls-2" transform="translate(24.58 133.39) rotate(-99.62) scale(.96 1)"><tspan x="0" y="0">t</tspan></text>
    <text class="cls-2" transform="translate(23.37 126.92) rotate(-94.33) scale(.96 1)"><tspan x="0" y="0">h</tspan></text>
    <text class="cls-2" transform="translate(22.56 115.43) rotate(-88.5) scale(.96 1)"><tspan x="0" y="0">e</tspan></text>
    <text class="cls-2" transform="translate(22.85 106.59) rotate(-84.67) scale(.96 1)"><tspan x="0" y="0"> </tspan></text>
    <text class="cls-2" transform="translate(23.22 102.16) rotate(-81.22) scale(.96 1)"><tspan x="0" y="0">s</tspan></text>
    <text class="cls-2" transform="translate(24.28 94.55) rotate(-75.46) scale(.96 1)"><tspan x="0" y="0">u</tspan></text>
    <text class="cls-2" transform="translate(27.33 82.86) rotate(-68.37) scale(.96 1)"><tspan x="0" y="0">n</tspan></text>
    <text class="cls-2" transform="translate(31.66 72.31) rotate(-63.66) scale(.96 1)"><tspan x="0" y="0"> </tspan></text>
    <text class="cls-2" transform="translate(33.61 68.29) rotate(-60.4) scale(.96 1)"><tspan x="0" y="0">t</tspan></text>
    <text class="cls-2" transform="translate(36.8 62.57) rotate(-55.74) scale(.96 1)"><tspan x="0" y="0">o</tspan></text>
    <text class="cls-2" transform="translate(41.87 54.99) rotate(-49.36) scale(.96 1)"><tspan x="0" y="0">u</tspan></text>
    <text class="cls-2" transform="translate(49.62 46.08) rotate(-43.09) scale(.96 1)"><tspan x="0" y="0">c</tspan></text>
    <text class="cls-2" transform="translate(56.03 39.98) rotate(-36.68) scale(.96 1)"><tspan x="0" y="0">h</tspan></text>
    <g>
      <path class="cls-1" d="M43.05,101.75c2.4-1.14,4.99-2.01,7.72-2.3,5.34-.41,10.32.59,15.3-1.55,2.37-.88,4.7-1.9,6.66-3.3,4.14-3.03,7.41-8.07,12.54-10.18,3.87-1.84,8.12-3.16,12.48-3.19,3.93,0,7.61.96,11.43.16,2.33-.4,4.75-1.21,6.96-2.18,3.55-1.44,6.1-4.06,8.95-6.66,5.4-4.54,12.64-6.92,19.64-6.46,2.79.25,5.29.91,7.86.98,2.57.13,5.19-.3,7.77-.92-2.4,1.14-4.99,2.01-7.72,2.3-2.74.35-5.48-.04-7.99.09-4.91.14-9.94,2.11-13.97,4.77-2,1.36-3.57,3.15-5.53,5.14-4.01,4.17-9.47,6.6-15.1,7.79-4.03.92-8.33.08-12.31-.05-3.61.02-7.14,1.06-10.48,2.5-3.55,1.44-6.1,4.06-8.96,6.66-5.4,4.54-12.63,6.92-19.63,6.46-2.79-.25-5.29-.91-7.86-.98-2.57-.13-5.19.3-7.77.92h0Z"/>
      <path class="cls-1" d="M55.27,131.67c2.4-1.14,4.99-2.01,7.72-2.3,5.34-.41,10.32.59,15.3-1.55,2.37-.88,4.7-1.9,6.66-3.3,4.14-3.03,7.41-8.07,12.54-10.18,3.87-1.84,8.12-3.16,12.48-3.19,3.93,0,7.61.96,11.43.16,2.33-.4,4.75-1.21,6.96-2.18,3.55-1.44,6.1-4.06,8.95-6.66,5.4-4.54,12.64-6.92,19.64-6.46,2.79.25,5.29.91,7.86.98,2.57.13,5.19-.3,7.77-.92-2.4,1.14-4.99,2.01-7.72,2.3-2.74.35-5.48-.04-7.99.09-4.91.14-9.94,2.11-13.97,4.77-2,1.36-3.57,3.15-5.53,5.14-4.01,4.17-9.47,6.6-15.1,7.79-4.03.92-8.33.08-12.31-.05-3.61.02-7.14,1.06-10.48,2.5-3.55,1.44-6.1,4.06-8.96,6.66-5.4,4.54-12.63,6.92-19.63,6.46-2.79-.25-5.29-.91-7.86-.98-2.57-.13-5.19.3-7.77.92h0Z"/>
      <path class="cls-1" d="M66.7,160.93c2.4-1.14,4.99-2.01,7.72-2.3,5.34-.41,10.32.59,15.3-1.55,2.37-.88,4.7-1.9,6.66-3.3,4.14-3.03,7.41-8.07,12.54-10.18,3.87-1.84,8.12-3.16,12.48-3.19,3.93,0,7.61.96,11.43.16,2.33-.4,4.75-1.21,6.96-2.18,3.55-1.44,6.1-4.06,8.95-6.66,5.4-4.54,12.64-6.92,19.64-6.46,2.79.25,5.29.91,7.86.98,2.57.13,5.19-.3,7.77-.92-2.4,1.14-4.99,2.01-7.72,2.3-2.74.35-5.48-.04-7.99.09-4.91.14-9.94,2.11-13.97,4.77-2,1.36-3.57,3.15-5.53,5.14-4.01,4.17-9.47,6.6-15.1,7.79-4.03.92-8.33.08-12.31-.05-3.61.02-7.14,1.06-10.48,2.5-3.55,1.44-6.1,4.06-8.96,6.66-5.4,4.54-12.63,6.92-19.63,6.46-2.79-.25-5.29-.91-7.86-.98-2.57-.13-5.19.3-7.77.92h0Z"/>
    </g>
  </g>
</svg>