<?xml version="1.0" encoding="UTF-8"?>
<svg id="Layer_2" data-name="Layer 2" xmlns="http://www.w3.org/2000/svg" viewBox="0 0 205.05 205.05">
  <defs>
    <style>
      .cls-1 {
        fill: none;
        stroke: #13293d;
        stroke-miterlimit: 10;
        stroke-width: 3px;
      }

      .cls-2 {
        fill: #eda9b2;
      }

      .cls-2, .cls-3 {
        stroke-width: 0px;
      }

      .cls-3 {
        fill: #fadcd2;
      }

      .cls-4 {
        fill: #13293d;
        font-family: StylishCalifornia, 'Stylish California';
        font-size: 16.2px;
      }
    </style>
  </defs>
  <g id="Layer_20" data-name="Layer 20">
    <circle class="cls-2" cx="102.53" cy="102.53" r="94.07"/>
    <text class="cls-4" transform="translate(65.24 33.94) rotate(-24.9) scale(.96 1)"><tspan x="0" y="0">m</tspan></text>
    <text class="cls-4" transform="translate(78.42 28.09) rotate(-16.39) scale(.96 1)"><tspan x="0" y="0">e</tspan></text>
    <text class="cls-4" transform="translate(85.91 25.91) rotate(-10.21) scale(.96 1)"><tspan x="0" y="0">e</tspan></text>
    <text class="cls-4" transform="translate(93.07 24.66) rotate(-5.26) scale(.96 1)"><tspan x="0" y="0">t</tspan></text>
    <text class="cls-4" transform="translate(98.38 24.18) rotate(-1.73) scale(.96 1)"><tspan x="0" y="0"> </tspan></text>
    <text class="cls-4" transform="translate(101.93 23.73) rotate(5.26) scale(.96 1)"><tspan x="0" y="0">m</tspan></text>
    <text class="cls-4" transform="translate(116.26 25.3) rotate(13.82) scale(.96 1)"><tspan x="0" y="0">e</tspan></text>
    <text class="cls-4" transform="translate(123.34 27.1) rotate(18.15) scale(.96 1)"><tspan x="0" y="0"> </tspan></text>
    <text class="cls-4" transform="translate(126.8 27.84) rotate(25.35) scale(.96 1)"><tspan x="0" y="0">w</tspan></text>
    <text class="cls-4" transform="translate(140.08 34.34) rotate(34.61) scale(.96 1)"><tspan x="0" y="0">h</tspan></text>
    <text class="cls-4" transform="translate(147.9 39.81) rotate(40.98) scale(.96 1)"><tspan x="0" y="0">e</tspan></text>
    <text class="cls-4" transform="translate(153.68 44.83) rotate(46.7) scale(.96 1)"><tspan x="0" y="0">r</tspan></text>
    <text class="cls-4" transform="translate(158.69 50.13) rotate(52.03) scale(.96 1)"><tspan x="0" y="0">e</tspan></text>
    <text class="cls-4" transform="translate(163.14 55.93) rotate(56.04) scale(.96 1)"><tspan x="0" y="0"> </tspan></text>
    <text class="cls-4" transform="translate(165.23 58.98) rotate(59.32) scale(.96 1)"><tspan x="0" y="0">t</tspan></text>
    <text class="cls-4" transform="translate(168.09 63.6) rotate(64.75) scale(.96 1)"><tspan x="0" y="0">h</tspan></text>
    <text class="cls-4" transform="translate(172.12 72.27) rotate(70.82) scale(.96 1)"><tspan x="0" y="0">e</tspan></text>
    <text class="cls-4" transform="translate(174.47 79.19) rotate(74.75) scale(.96 1)"><tspan x="0" y="0"> </tspan></text>
    <text class="cls-4" transform="translate(175.48 82.73) rotate(78.24) scale(.96 1)"><tspan x="0" y="0">s</tspan></text>
    <text class="cls-4" transform="translate(176.86 88.95) rotate(83.97) scale(.96 1)"><tspan x="0" y="0">u</tspan></text>
    <text class="cls-4" transform="translate(177.9 98.91) rotate(90.89) scale(.96 1)"><tspan x="0" y="0">n</tspan></text>
    <text class="cls-4" transform="translate(177.7 108.05) rotate(95.74) scale(.96 1)"><tspan x="0" y="0">t</tspan></text>
    <text class="cls-4" transform="translate(177.19 113.47) rotate(100.27) scale(.96 1)"><tspan x="0" y="0">o</tspan></text>
    <text class="cls-4" transform="translate(175.9 120.94) rotate(106.5) scale(.96 1)"><tspan x="0" y="0">u</tspan></text>
    <text class="cls-4" transform="translate(173.06 130.3) rotate(112.57) scale(.96 1)"><tspan x="0" y="0">c</tspan></text>
    <text class="cls-4" transform="translate(170.31 137.08) rotate(118.71) scale(.96 1)"><tspan x="0" y="0">h</tspan></text>
    <text class="cls-4" transform="translate(165.67 145.45) rotate(124.86) scale(.96 1)"><tspan x="0" y="0">e</tspan></text>
    <text class="cls-4" transform="translate(161.1 151.93) rotate(130.22) scale(.96 1)"><tspan x="0" y="0">s</tspan></text>
    <text class="cls-4" transform="translate(157.11 156.6) rotate(133.84) scale(.96 1)"><tspan x="0" y="0"> </tspan></text>
    <text class="cls-4" transform="translate(154.57 159.28) rotate(137.19) scale(.96 1)"><tspan x="0" y="0">t</tspan></text>
    <text class="cls-4" transform="translate(150.67 163.04) rotate(142.82) scale(.96 1)"><tspan x="0" y="0">h</tspan></text>
    <text class="cls-4" transform="translate(143.04 168.77) rotate(149.26) scale(.96 1)"><tspan x="0" y="0">e</tspan></text>
    <text class="cls-4" transform="translate(136.75 172.44) rotate(153.48) scale(.96 1)"><tspan x="0" y="0"> </tspan></text>
    <text class="cls-4" transform="translate(133.48 174.12) rotate(157.31) scale(.96 1)"><tspan x="0" y="0">s</tspan></text>
    <text class="cls-4" transform="translate(127.34 176.7) rotate(163.02) scale(.96 1)"><tspan x="0" y="0">e</tspan></text>
    <text class="cls-4" transform="translate(119.79 178.99) rotate(169.37) scale(.96 1)"><tspan x="0" y="0">a</tspan></text>
    <text class="cls-4" transform="translate(112.35 180.32) rotate(173.8) scale(.96 1)"><tspan x="0" y="0"> </tspan></text>
    <text class="cls-4" transform="translate(108.87 181.08) rotate(-179.03) scale(.96 1)"><tspan x="0" y="0">m</tspan></text>
    <text class="cls-4" transform="translate(94.44 180.61) rotate(-170.7) scale(.96 1)"><tspan x="0" y="0">e</tspan></text>
    <text class="cls-4" transform="translate(86.73 179.33) rotate(-164.51) scale(.96 1)"><tspan x="0" y="0">e</tspan></text>
    <text class="cls-4" transform="translate(79.75 177.36) rotate(-159.58) scale(.96 1)"><tspan x="0" y="0">t</tspan></text>
    <text class="cls-4" transform="translate(74.35 175.68) rotate(-151.61) scale(.96 1)"><tspan x="0" y="0">m</tspan></text>
    <text class="cls-4" transform="translate(61.76 168.59) rotate(-143.3) scale(.96 1)"><tspan x="0" y="0">e</tspan></text>
    <text class="cls-4" transform="translate(55.95 164.2) rotate(-139.19) scale(.96 1)"><tspan x="0" y="0"> </tspan></text>
    <text class="cls-4" transform="translate(53.02 162.14) rotate(-132.34) scale(.96 1)"><tspan x="0" y="0">w</tspan></text>
    <text class="cls-4" transform="translate(43.19 151.08) rotate(-123.54) scale(.96 1)"><tspan x="0" y="0">h</tspan></text>
    <text class="cls-4" transform="translate(37.95 143.09) rotate(-117.42) scale(.96 1)"><tspan x="0" y="0">e</tspan></text>
    <text class="cls-4" transform="translate(34.43 136.29) rotate(-111.89) scale(.96 1)"><tspan x="0" y="0">r</tspan></text>
    <text class="cls-4" transform="translate(31.7 129.5) rotate(-106.67) scale(.96 1)"><tspan x="0" y="0">e</tspan></text>
    <text class="cls-4" transform="translate(29.65 122.48) rotate(-102.76) scale(.96 1)"><tspan x="0" y="0"> </tspan></text>
    <text class="cls-4" transform="translate(28.81 118.88) rotate(-99.56) scale(.96 1)"><tspan x="0" y="0">t</tspan></text>
    <text class="cls-4" transform="translate(27.81 113.52) rotate(-94.27) scale(.96 1)"><tspan x="0" y="0">h</tspan></text>
    <text class="cls-4" transform="translate(27.15 104) rotate(-88.43) scale(.96 1)"><tspan x="0" y="0">e</tspan></text>
    <text class="cls-4" transform="translate(27.4 96.67) rotate(-84.61) scale(.96 1)"><tspan x="0" y="0"> </tspan></text>
    <text class="cls-4" transform="translate(27.71 93) rotate(-81.16) scale(.96 1)"><tspan x="0" y="0">s</tspan></text>
    <text class="cls-4" transform="translate(28.6 86.71) rotate(-75.39) scale(.96 1)"><tspan x="0" y="0">u</tspan></text>
    <text class="cls-4" transform="translate(31.13 77.03) rotate(-68.3) scale(.96 1)"><tspan x="0" y="0">n</tspan></text>
    <text class="cls-4" transform="translate(34.73 68.28) rotate(-63.6) scale(.96 1)"><tspan x="0" y="0"> </tspan></text>
    <text class="cls-4" transform="translate(36.35 64.96) rotate(-60.33) scale(.96 1)"><tspan x="0" y="0">t</tspan></text>
    <text class="cls-4" transform="translate(39.01 60.2) rotate(-55.65) scale(.96 1)"><tspan x="0" y="0">o</tspan></text>
    <text class="cls-4" transform="translate(43.22 53.92) rotate(-49.27) scale(.96 1)"><tspan x="0" y="0">u</tspan></text>
    <text class="cls-4" transform="translate(49.65 46.55) rotate(-43) scale(.96 1)"><tspan x="0" y="0">c</tspan></text>
    <text class="cls-4" transform="translate(54.95 41.52) rotate(-36.61) scale(.96 1)"><tspan x="0" y="0">h</tspan></text>
    <circle class="cls-3" cx="102.53" cy="102.53" r="67.79"/>
    <circle class="cls-1" cx="102.53" cy="102.53" r="101.03"/>
    <path class="cls-2" d="M87.06,148.48c-3.27-.88-7.14-1.89-8.81-4.94-.43-.78-.68-1.65-.95-2.49-1.59-4.83-9.07-35.24-9.82-39.03-.51-2.54-1.04-5.08-1.39-7.65-.3-2.24-.86-4.95-.52-7.19.61-4.11,1.94-8.51,5.4-10.81-.2-1.1-.32-2.32-.52-3.42-.13-.73-.27-1.48-.15-2.22.06-.37.18-.73.35-1.07.4-.79,1.53-.78,1.93,0,.27.54.57,1.06.83,1.57.34.67.73,1.33,1.22,1.89.31.35.66.67.9,1.08.29.49.4,1.08.3,1.64,4.04,1.58,6.91,5.81,7.85,10.05.87,3.92-.07,8.03.4,12.02.21,1.77.69,3.5,1.17,5.22.56,2.01,1.12,4.03,1.68,6.04,2.38-1.14,3.25-3.85,3.9-6.4,1.3-5.08,1.78-10.36,3.31-15.38.57-1.88,1.28-3.73,1.55-5.67.14-1.02.16-2.05.2-3.08.17-4.75.94-9.85,4.26-13.25,2.03-2.08,4.9-3.3,7.8-3.32,1.07,0,1.89-1.16,2.31-2.15s.72-2.09,1.53-2.79c.47-.4,1.06-.63,1.65-.79.74-.2,1.5-.3,2.26-.3s.97.96.34,1.31c-.6.34-1.15.76-1.6,1.33-.22.27-.39.58-.52.91-.73,1.95.54,3.14,1.63,4.28,1.85,1.93,3.45,4.17,4.33,6.69s.62,6.42-.43,8.8c-2.37,5.43-2.9,11.61-5.92,16.72-.52.88-1.07,1.74-1.45,2.68-.42,1.05-.62,2.17-.91,3.26-1.3,4.94-4.41,9.4-4.82,14.5,7.54-3.27,12.43-11.12,19.24-15.73.7-.47,1.44-.92,2.27-1.09.55-.12,1.12-.1,1.68-.09,1.29.03,2.58.05,3.87.08.83-.72,1.46-1.77,2.22-2.57s1.71-1.5,2.81-1.57c.13,0,.25-.01.36-.01.79,0,1.12,1.05.44,1.46-1.07.64-1.63,2.38-1.88,3.72-.31,1.71.09,3.46.12,5.2.08,3.72-1.55,7.34-3.94,10.2s-5.5,5.03-8.73,6.88c-3.09,1.77-17.47,16.79-20.23,19.14-1.71,1.45-3.51,2.32-5.2,3.7-3.44,2.81-8.02,3.76-12.31,2.61Z"/>
  </g>
</svg>